ply
format ascii 1.0
comment VCGLIB generated
comment TextureFile character_ali_textured.jpg
element vertex 196
property float x
property float y
property float z
property uchar red
property uchar green
property uchar blue
property uchar alpha
element face 400
property list uchar int vertex_indices
property list uchar float texcoord
property uchar red
property uchar green
property uchar blue
property uchar alpha
end_header
0.5412992 -2.223425 -0.1866993 192 192 192 255 
0.3875931 -2.198685 0.2378633 192 192 192 255 
0.3009478 -2.211934 -0.4784551 192 192 192 255 
0.4567293 -2.225924 -0.05964809 192 192 192 255 
0.4657571 -2.187986 -0.54587 192 192 192 255 
0.2693458 -2.187315 -0.1691526 192 192 192 255 
0.2534908 -2.193511 0.2017125 192 192 192 255 
0.3061421 -2.096873 -0.4075967 192 192 192 255 
0.5153954 -2.098303 -0.3019786 192 192 192 255 
-0.3247658 -2.153698 -0.2264044 192 192 192 255 
-0.3920738 -2.190599 -0.5481178 192 192 192 255 
-0.3193837 -2.04635 0.01370486 192 192 192 255 
-0.6252151 -2.201875 -0.3804791 192 192 192 255 
-0.3195474 -2.206936 0.1942343 192 192 192 255 
-0.4959438 -2.191066 0.1951417 192 192 192 255 
-0.4390519 -2.074489 -0.5059831 192 192 192 255 
-0.4557579 -1.96854 0.1740842 192 192 192 255 
-0.4022996 -2.05482 -0.3077832 192 192 192 255 
0.2723536 -1.941387 0.1083384 192 192 192 255 
0.368152 -1.966256 0.1566153 192 192 192 255 
-0.5611371 -2.088684 -0.1948057 192 192 192 255 
-0.534744 -1.967424 0.004641645 192 192 192 255 
0.3457854 -1.922077 -0.1582517 192 192 192 255 
0.440972 -1.898892 -0.05097362 192 192 192 255 
-0.4092511 -1.880247 -0.1127322 192 192 192 255 
0.2472317 -1.943075 -0.0323553 192 192 192 255 
-0.4766382 -1.701313 -0.09868701 192 192 192 255 
-0.3879912 -1.910769 0.1058119 192 192 192 255 
0.3791166 -1.810365 0.1081902 192 192 192 255 
-0.4795978 -1.662979 0.1203432 192 192 192 255 
0.4937924 -1.503531 -0.06406209 192 192 192 255 
0.3578019 -1.63324 -0.1210844 192 192 192 255 
-0.5663363 -1.406412 -0.08317622 192 192 192 255 
0.3724476 -1.365985 0.134339 192 192 192 255 
0.1708863 -1.419014 -0.03961091 192 192 192 255 
-0.2844117 -1.506765 0.03665692 192 192 192 255 
-0.5040382 -1.270399 0.1416698 192 192 192 255 
-0.3956271 -0.8827327 0.07311139 192 192 192 255 
-0.4778186 -0.939623 -0.02449566 192 192 192 255 
0.1304325 -1.037768 -0.08633316 192 192 192 255 
0.3538712 -1.16059 -0.226548 192 192 192 255 
0.2658302 -0.9772016 0.02347288 192 192 192 255 
0.393438 -0.9221488 -0.07417505 192 192 192 255 
-0.4417409 -1.14512 -0.1957409 192 192 192 255 
0.2673429 -0.9213899 -0.337671 192 192 192 255 
-0.2161986 -1.020895 -0.07662507 192 192 192 255 
0.4546792 -0.8841344 -0.3054821 192 192 192 255 
0.5130686 -0.8488661 -0.1341955 192 192 192 255 
-0.1462939 -0.9325255 -0.2364361 192 192 192 255 
-0.4078279 -0.9338564 -0.3244155 192 192 192 255 
0.1376113 -0.8853596 -0.2916676 192 192 192 255 
0.4128871 -0.6723561 -0.3464708 192 192 192 255 
-0.5629771 -0.8874509 -0.1881794 192 192 192 255 
-0.4682622 -0.5409407 -0.3471164 192 192 192 255 
0.03012287 -0.7144909 -0.1631734 192 192 192 255 
-0.1897179 -0.731123 -0.343303 192 192 192 255 
0.1556587 -0.5911683 -0.3613649 192 192 192 255 
-0.0376298 -0.5827459 -0.1753134 192 192 192 255 
-0.04925618 -0.4902841 -0.1350554 192 192 192 255 
-0.5356895 -0.2954158 -0.1678846 192 192 192 255 
0.3286658 -0.4080667 0.07111646 192 192 192 255 
0.09126858 -0.5744718 0.08782136 192 192 192 255 
-0.1217108 -0.6315731 0.05288295 192 192 192 255 
0.2048901 -0.3253138 0.1616377 192 192 192 255 
0.4604505 -0.3970302 -0.1692535 192 192 192 255 
-0.4661272 -0.2954839 0.00428433 192 192 192 255 
-0.04694665 -0.3530878 -0.03395871 192 192 192 255 
-0.2773074 -0.3448165 0.1528954 192 192 192 255 
-0.04242344 -0.4044354 -0.3197096 192 192 192 255 
-0.04836861 -0.1117516 0.1815189 192 192 192 255 
-0.283012 -0.1989604 -0.4084257 192 192 192 255 
0.2611109 -0.1751121 -0.3680394 192 192 192 255 
-1.168043 -0.2759189 -0.3408039 192 192 192 255 
1.251009 -0.1919405 -0.3284265 192 192 192 255 
1.201922 -0.01808483 -0.3259884 192 192 192 255 
1.192632 -0.1174138 -0.2009174 192 192 192 255 
1.239992 -0.1270664 -0.2684292 192 192 192 255 
1.250249 -0.1341342 -0.4023497 192 192 192 255 
0.4160667 -0.05594309 -0.2572485 192 192 192 255 
-0.0408157 0.1255779 -0.3994168 192 192 192 255 
1.136214 0.00950381 -0.1710818 192 192 192 255 
-1.012091 -0.07016771 -0.5585337 192 192 192 255 
-1.161545 -0.240066 -0.448081 192 192 192 255 
-0.05088579 0.1227356 0.2256247 192 192 192 255 
-1.149106 -0.007959907 -0.355965 192 192 192 255 
-0.4613694 0.0992699 -0.205807 192 192 192 255 
1.084726 0.0832535 -0.3964791 192 192 192 255 
-1.135087 -0.1558001 -0.2357695 192 192 192 255 
1.11549 0.2407304 -0.3019691 192 192 192 255 
-1.049601 -0.01156202 -0.4043688 192 192 192 255 
0.3173315 -0.009282044 0.1409955 192 192 192 255 
0.383405 0.1213789 -0.1523592 192 192 192 255 
-0.9967668 0.1260903 -0.2464515 192 192 192 255 
1.142752 0.2287372 -0.1837715 192 192 192 255 
1.030599 0.1437732 -0.2991636 192 192 192 255 
0.09363125 0.1965157 0.2133912 192 192 192 255 
-0.9915944 0.06288531 -0.4425209 192 192 192 255 
-0.3482339 0.04299416 0.1616524 192 192 192 255 
1.014812 0.204342 -0.195315 192 192 192 255 
0.3269908 0.3333919 -0.005765537 192 192 192 255 
0.9310508 0.3289385 -0.2432524 192 192 192 255 
-1.0792 0.2259347 -0.2467121 192 192 192 255 
-1.081525 0.1129813 -0.4109991 192 192 192 255 
-0.8728266 0.2961739 -0.1538444 192 192 192 255 
-0.09344986 0.1362111 -0.5171869 192 192 192 255 
0.8018431 0.36767 -0.09915647 192 192 192 255 
-0.3202481 0.4716785 0.0008325075 192 192 192 255 
-0.4290484 0.2942046 -0.1701912 192 192 192 255 
-0.8444437 0.3337961 -0.2731135 192 192 192 255 
-0.07125869 0.649161 0.1693519 192 192 192 255 
0.625227 0.5389805 -0.08348747 192 192 192 255 
-0.32127 0.1291643 -0.3508194 192 192 192 255 
0.2898811 0.6501092 -0.1830587 192 192 192 255 
-0.2281515 0.4339003 0.2286883 192 192 192 255 
0.9955397 0.4437316 -0.1225075 192 192 192 255 
0.3040799 0.1456233 -0.2938625 192 192 192 255 
0.6700189 0.5787565 -0.1858449 192 192 192 255 
-0.4064128 0.6097116 -0.222349 192 192 192 255 
0.1855802 0.5191135 0.09046125 192 192 192 255 
-0.7099513 0.6955265 -0.02913789 192 192 192 255 
-0.6665308 0.5143895 -0.1400939 192 192 192 255 
0.862203 0.658066 -0.1873053 192 192 192 255 
-0.8805832 0.4673454 -0.3021567 192 192 192 255 
-0.6298295 0.6328087 -0.1980003 192 192 192 255 
-0.5784919 0.7476909 -0.08829723 192 192 192 255 
0.7342611 0.6768953 0.003941642 192 192 192 255 
-0.8584465 0.721665 -0.1766592 192 192 192 255 
0.4611258 0.9136118 0.1165681 192 192 192 255 
-0.3545418 0.9857158 -0.3700545 192 192 192 255 
0.6251554 0.842355 -0.1940116 192 192 192 255 
0.5465385 0.6967593 -0.08691777 192 192 192 255 
0.07161246 0.9558562 0.2710483 192 192 192 255 
-0.611998 0.8392223 -0.2559569 192 192 192 255 
0.3267077 0.9381714 -0.1081403 192 192 192 255 
0.3573747 0.8967074 0.03717759 192 192 192 255 
-0.4702516 0.9540468 -0.1141083 192 192 192 255 
0.0488837 0.7084232 -0.4374744 192 192 192 255 
-0.1739466 0.9302742 0.2412149 192 192 192 255 
-0.4425093 0.8736581 -0.04507249 192 192 192 255 
0.4610601 0.9917419 -0.1566244 192 192 192 255 
-0.4942804 0.9053533 0.008861187 192 192 192 255 
0.7054882 0.8997247 -0.05793462 192 192 192 255 
-0.1350549 0.7876853 -0.4481984 192 192 192 255 
0.1885393 0.9861719 -0.3826949 192 192 192 255 
-0.5999469 1.011838 -0.2492515 192 192 192 255 
0.5678231 1.121573 -0.07504442 192 192 192 255 
-0.004653335 1.166741 -0.3986562 192 192 192 255 
-0.715072 1.021914 0.00855548 192 192 192 255 
0.3186829 1.199595 0.220447 192 192 192 255 
-0.2696007 1.271908 0.1970315 192 192 192 255 
0.4134825 1.331372 -0.1716685 192 192 192 255 
-0.533753 1.247111 0.1457911 192 192 192 255 
0.449407 1.195651 0.17137 192 192 192 255 
0.4400203 1.392127 0.02684647 192 192 192 255 
-0.5122746 1.265983 -0.2646952 192 192 192 255 
-0.1411099 1.392697 -0.2844822 192 192 192 255 
-0.09447733 1.370232 0.1540346 192 192 192 255 
-0.29879 1.540095 0.003619584 192 192 192 255 
0.03056797 1.412385 -0.2512304 192 192 192 255 
-0.6300433 1.369871 -0.1322101 192 192 192 255 
-0.2925437 1.407075 -0.191217 192 192 192 255 
0.2400614 1.454228 0.06595758 192 192 192 255 
-0.2533187 1.5594 -0.1731975 192 192 192 255 
-0.1199939 1.531412 -0.260086 192 192 192 255 
0.007618906 1.589975 -0.3545803 192 192 192 255 
-0.1945423 1.664741 -0.3614908 192 192 192 255 
0.1407108 1.425776 -0.1635348 192 192 192 255 
-0.004294311 1.658346 -0.009192615 192 192 192 255 
-0.06208804 1.786572 0.01245861 192 192 192 255 
0.1161968 1.834985 -0.1457861 192 192 192 255 
-0.05396676 1.829576 -0.4710646 192 192 192 255 
0.1008569 1.883332 -0.3619976 192 192 192 255 
0.1174729 2.132931 -0.2343409 192 192 192 255 
-0.2308065 1.952217 -0.3631791 192 192 192 255 
-0.1079042 2.049534 0.04912214 192 192 192 255 
-0.1066872 2.138046 -0.3597009 192 192 192 255 
-0.2667696 1.917475 -0.1117226 192 192 192 255 
-0.01756849 2.10926 -0.3910202 192 192 192 255 
0.1006704 2.044577 -0.002031081 192 192 192 255 
0.009225569 2.164308 -0.3246257 192 192 192 255 
-0.1574899 2.187775 -0.1083309 192 192 192 255 
-0.2347684 2.147866 -0.2385026 192 192 192 255 
-0.1109555 2.158283 -0.2972021 192 192 192 255 
-0.00165277 2.198627 -0.3682317 192 192 192 255 
-0.0009597173 2.176843 -0.07268924 192 192 192 255 
-0.07093447 2.17633 -0.3003168 192 192 192 255 
-0.05419074 2.192033 -0.2349875 192 192 192 255 
-0.09664656 2.230362 -0.2573424 192 192 192 255 
-0.08306862 2.198076 -0.2173851 192 192 192 255 
-0.02790756 2.216094 -0.2217829 192 192 192 255 
-0.06717609 2.210435 -0.1925295 192 192 192 255 
-0.07417531 2.206246 -0.2294842 192 192 192 255 
-0.1020392 2.213405 -0.1359855 192 192 192 255 
-0.01737359 2.17314 -0.2080286 192 192 192 255 
-0.05135508 2.201093 -0.172164 192 192 192 255 
-0.07516401 2.236626 -0.2261681 192 192 192 255 
3 4 0 3 6 0.044036 0.987623 0.010046 0.935811 0.036171 0.933627 0 0 0 0 
3 3 2 4 6 0.247501 0.108007 0.179896 0.118395 0.189218 0.094556 0 0 0 0 
3 0 4 8 6 0.873963 0.557944 0.938500 0.565297 0.897896 0.581317 0 0 0 0 
3 2 3 5 6 0.179896 0.118395 0.247501 0.108007 0.221134 0.138367 0 0 0 0 
3 3 1 6 6 0.023248 0.859835 0.015166 0.849377 0.033656 0.849293 0 0 0 0 
3 6 5 3 6 0.288113 0.152139 0.221134 0.138367 0.247501 0.108007 0 0 0 0 
3 2 5 7 6 0.180413 0.124735 0.221134 0.138367 0.174159 0.146739 0 0 0 0 
3 3 0 8 6 0.844453 0.568189 0.873963 0.557944 0.897896 0.581317 0 0 0 0 
3 5 6 18 6 0.221134 0.138367 0.288113 0.152139 0.264670 0.193934 0 0 0 0 
3 5 18 25 6 0.221134 0.138367 0.264670 0.193934 0.237452 0.191485 0 0 0 0 
3 14 9 13 6 0.775970 0.667264 0.727388 0.644550 0.791314 0.631990 0 0 0 0 
3 12 9 14 6 0.720379 0.699408 0.727388 0.644550 0.775970 0.667264 0 0 0 0 
3 9 12 10 6 0.727388 0.644550 0.720379 0.699408 0.686481 0.673266 0 0 0 0 
3 13 9 11 6 0.791314 0.631990 0.727388 0.644550 0.764009 0.615160 0 0 0 0 
3 1 3 19 6 0.006270 0.097489 0.019236 0.067031 0.048662 0.088634 0 0 0 0 
3 4 2 7 6 0.144508 0.141409 0.164027 0.126100 0.174159 0.146739 0 0 0 0 
3 23 3 8 6 0.848184 0.632394 0.844453 0.568189 0.897896 0.581317 0 0 0 0 
3 12 14 20 6 0.403606 0.320742 0.376776 0.214610 0.414818 0.282123 0 0 0 0 
3 19 3 23 6 0.048662 0.088634 0.019236 0.067031 0.047188 0.053287 0 0 0 0 
3 6 1 19 6 0.025058 0.111073 0.006270 0.097489 0.048662 0.088634 0 0 0 0 
3 6 19 18 6 0.025058 0.111073 0.048662 0.088634 0.030657 0.109151 0 0 0 0 
3 12 15 10 6 0.403606 0.320742 0.438935 0.336197 0.436181 0.346330 0 0 0 0 
3 7 8 4 6 0.920498 0.603166 0.897896 0.581317 0.938256 0.594460 0 0 0 0 
3 9 10 15 6 0.727388 0.644550 0.686481 0.673266 0.676514 0.653889 0 0 0 0 
3 7 5 22 6 0.174159 0.146739 0.221134 0.138367 0.208828 0.188711 0 0 0 0 
3 22 5 25 6 0.208828 0.188711 0.221134 0.138367 0.237452 0.191485 0 0 0 0 
3 20 14 21 6 0.414818 0.282123 0.376776 0.214610 0.426841 0.234440 0 0 0 0 
3 17 9 15 6 0.701402 0.633651 0.727388 0.644550 0.676514 0.653889 0 0 0 0 
3 22 8 7 6 0.882731 0.624195 0.897896 0.581317 0.920498 0.603166 0 0 0 0 
3 12 17 15 6 0.403606 0.320742 0.436013 0.317487 0.438935 0.336197 0 0 0 0 
3 17 12 20 6 0.436013 0.317487 0.403606 0.320742 0.428769 0.307945 0 0 0 0 
3 14 16 21 6 0.376776 0.214610 0.414044 0.202353 0.426841 0.234440 0 0 0 0 
3 23 8 22 6 0.848184 0.632394 0.897896 0.581317 0.882731 0.624195 0 0 0 0 
3 28 19 23 6 0.087494 0.077987 0.048662 0.088634 0.047188 0.053287 0 0 0 0 
3 14 13 16 6 0.809693 0.631983 0.791314 0.631990 0.796368 0.595404 0 0 0 0 
3 13 11 27 6 0.791314 0.631990 0.764009 0.615160 0.777843 0.584282 0 0 0 0 
3 11 9 24 6 0.764009 0.615160 0.727388 0.644550 0.732553 0.589365 0 0 0 0 
3 24 17 20 6 0.955649 0.807347 0.963936 0.860986 0.929291 0.851573 0 0 0 0 
3 17 24 9 6 0.714890 0.618592 0.732553 0.589365 0.727388 0.644550 0 0 0 0 
3 16 13 27 6 0.796368 0.595404 0.791314 0.631990 0.777843 0.584282 0 0 0 0 
3 24 20 21 6 0.955649 0.807347 0.929291 0.851573 0.928706 0.817100 0 0 0 0 
3 16 27 21 6 0.414044 0.202353 0.431891 0.197328 0.426841 0.234440 0 0 0 0 
3 19 28 18 6 0.048662 0.088634 0.087494 0.077987 0.068691 0.096016 0 0 0 0 
3 27 11 24 6 0.777843 0.584282 0.764009 0.615160 0.732553 0.589365 0 0 0 0 
3 22 25 31 6 0.208828 0.188711 0.237452 0.191485 0.206913 0.229782 0 0 0 0 
3 23 22 31 6 0.848184 0.632394 0.876641 0.632183 0.864271 0.656067 0 0 0 0 
3 24 21 26 6 0.448880 0.242246 0.426841 0.234440 0.463434 0.229423 0 0 0 0 
3 27 24 35 6 0.777843 0.584282 0.732553 0.589365 0.750738 0.511459 0 0 0 0 
3 21 27 29 6 0.426841 0.234440 0.431891 0.197328 0.480560 0.194749 0 0 0 0 
3 25 18 28 6 0.237452 0.191485 0.264670 0.193934 0.249608 0.259523 0 0 0 0 
3 26 21 29 6 0.463434 0.229423 0.426841 0.234440 0.480560 0.194749 0 0 0 0 
3 30 28 23 6 0.839146 0.709274 0.830731 0.647558 0.848184 0.632394 0 0 0 0 
3 35 24 26 6 0.750738 0.511459 0.732553 0.589365 0.721159 0.535173 0 0 0 0 
3 23 31 30 6 0.848184 0.632394 0.864320 0.690839 0.838645 0.711157 0 0 0 0 
3 26 29 32 6 0.940359 0.764211 0.920323 0.769120 0.920717 0.716196 0 0 0 0 
3 27 35 29 6 0.777843 0.584282 0.750738 0.511459 0.788822 0.535829 0 0 0 0 
3 31 25 34 6 0.206913 0.229782 0.237452 0.191485 0.218701 0.289962 0 0 0 0 
3 30 33 28 6 0.143936 0.049825 0.164005 0.073687 0.087494 0.077987 0 0 0 0 
3 34 25 28 6 0.218701 0.289962 0.237452 0.191485 0.249608 0.259523 0 0 0 0 
3 28 33 34 6 0.249608 0.259523 0.262220 0.299171 0.218701 0.289962 0 0 0 0 
3 36 29 35 6 0.784633 0.472609 0.788822 0.535829 0.750738 0.511459 0 0 0 0 
3 29 36 32 6 0.480560 0.194749 0.546359 0.172864 0.532779 0.204667 0 0 0 0 
3 31 40 30 6 0.864320 0.690839 0.865904 0.772341 0.838645 0.711157 0 0 0 0 
3 40 31 34 6 0.166670 0.322517 0.183614 0.270978 0.218701 0.289962 0 0 0 0 
3 32 43 26 6 0.920717 0.716196 0.942425 0.665189 0.940359 0.764211 0 0 0 0 
3 35 26 43 6 0.955569 0.705857 0.940359 0.764211 0.942425 0.665189 0 0 0 0 
3 34 33 41 6 0.218701 0.289962 0.262220 0.299171 0.233161 0.369971 0 0 0 0 
3 39 34 41 6 0.197835 0.363444 0.218701 0.289962 0.233161 0.369971 0 0 0 0 
3 34 39 40 6 0.218701 0.289962 0.197835 0.363444 0.166670 0.322517 0 0 0 0 
3 33 30 42 6 0.164005 0.073687 0.143936 0.049825 0.241440 0.042518 0 0 0 0 
3 45 35 43 6 0.716041 0.424885 0.750738 0.511459 0.694144 0.464293 0 0 0 0 
3 37 36 35 6 0.767179 0.396297 0.784633 0.472609 0.750738 0.511459 0 0 0 0 
3 45 37 35 6 0.716041 0.424885 0.767179 0.396297 0.750738 0.511459 0 0 0 0 
3 30 40 42 6 0.838645 0.711157 0.865904 0.772341 0.833245 0.808126 0 0 0 0 
3 41 33 42 6 0.238229 0.073373 0.164005 0.073687 0.241440 0.042518 0 0 0 0 
3 36 43 32 6 0.546359 0.172864 0.589348 0.200682 0.532779 0.204667 0 0 0 0 
3 43 36 38 6 0.589348 0.200682 0.546359 0.172864 0.611816 0.175422 0 0 0 0 
3 38 36 37 6 0.779325 0.411974 0.784633 0.472609 0.767179 0.396297 0 0 0 0 
3 44 42 40 6 0.883688 0.819154 0.833245 0.808126 0.865904 0.772341 0 0 0 0 
3 50 40 39 6 0.154402 0.369421 0.166670 0.322517 0.197835 0.363444 0 0 0 0 
3 44 40 50 6 0.142557 0.356826 0.166670 0.322517 0.154402 0.369421 0 0 0 0 
3 45 43 49 6 0.716041 0.424885 0.694144 0.464293 0.670509 0.430457 0 0 0 0 
3 43 38 49 6 0.942425 0.665189 0.924201 0.627653 0.953278 0.623837 0 0 0 0 
3 46 42 44 6 0.859246 0.828863 0.833245 0.808126 0.883688 0.819154 0 0 0 0 
3 45 49 48 6 0.716041 0.424885 0.670509 0.430457 0.683213 0.402220 0 0 0 0 
3 46 47 42 6 0.859246 0.828863 0.835375 0.830905 0.833245 0.808126 0 0 0 0 
3 41 42 60 6 0.238229 0.073373 0.241440 0.042518 0.343539 0.061282 0 0 0 0 
3 50 39 54 6 0.157449 0.386672 0.197835 0.363444 0.174121 0.425957 0 0 0 0 
3 55 48 49 6 0.648460 0.947064 0.637747 0.986791 0.620784 0.985136 0 0 0 0 
3 45 62 37 6 0.716041 0.424885 0.729475 0.336754 0.767179 0.396297 0 0 0 0 
3 51 46 44 6 0.614594 0.255338 0.631409 0.219268 0.654457 0.234647 0 0 0 0 
3 38 52 49 6 0.802976 0.706998 0.787149 0.685229 0.805203 0.670781 0 0 0 0 
3 52 38 37 6 0.637424 0.204064 0.618446 0.174196 0.645684 0.150401 0 0 0 0 
3 45 48 55 6 0.716041 0.424885 0.683213 0.402220 0.651308 0.377707 0 0 0 0 
3 47 60 42 6 0.265217 0.016657 0.343539 0.061282 0.241440 0.042518 0 0 0 0 
3 50 51 44 6 0.740800 0.975093 0.765109 0.936799 0.767031 0.972331 0 0 0 0 
3 62 45 55 6 0.729475 0.336754 0.716041 0.424885 0.651308 0.377707 0 0 0 0 
3 53 49 52 6 0.612319 0.918748 0.620784 0.985136 0.587718 0.978881 0 0 0 0 
3 47 46 51 6 0.601452 0.209497 0.631409 0.219268 0.614594 0.255338 0 0 0 0 
3 53 55 49 6 0.612319 0.918748 0.648460 0.947064 0.620784 0.985136 0 0 0 0 
3 39 41 61 6 0.197835 0.363444 0.233161 0.369971 0.219773 0.454675 0 0 0 0 
3 60 61 41 6 0.343539 0.061282 0.304520 0.099965 0.238229 0.073373 0 0 0 0 
3 51 50 56 6 0.765109 0.936799 0.740800 0.975093 0.733667 0.921248 0 0 0 0 
3 50 54 56 6 0.740800 0.975093 0.704362 0.953730 0.733667 0.921248 0 0 0 0 
3 53 52 59 6 0.703607 0.209872 0.637424 0.204064 0.735451 0.167205 0 0 0 0 
3 54 39 61 6 0.174121 0.425957 0.197835 0.363444 0.219773 0.454675 0 0 0 0 
3 62 55 57 6 0.729475 0.336754 0.651308 0.377707 0.667718 0.322249 0 0 0 0 
3 59 52 37 6 0.735451 0.167205 0.637424 0.204064 0.645684 0.150401 0 0 0 0 
3 47 64 60 6 0.265217 0.016657 0.343105 0.013116 0.343539 0.061282 0 0 0 0 
3 56 54 57 6 0.733667 0.921248 0.704362 0.953730 0.696126 0.934139 0 0 0 0 
3 47 51 64 6 0.601452 0.209497 0.614594 0.255338 0.560847 0.276252 0 0 0 0 
3 68 56 57 6 0.691383 0.892165 0.733667 0.921248 0.696126 0.934139 0 0 0 0 
3 54 61 58 6 0.174121 0.425957 0.219773 0.454675 0.177585 0.469811 0 0 0 0 
3 57 54 58 6 0.667718 0.322249 0.665109 0.299339 0.697565 0.300685 0 0 0 0 
3 51 56 71 6 0.764784 0.920285 0.733667 0.921248 0.738713 0.847891 0 0 0 0 
3 57 55 68 6 0.667718 0.322249 0.651308 0.377707 0.638178 0.326462 0 0 0 0 
3 62 57 58 6 0.729475 0.336754 0.667718 0.322249 0.697565 0.300685 0 0 0 0 
3 63 61 60 6 0.363841 0.091089 0.304520 0.099965 0.343539 0.061282 0 0 0 0 
3 37 62 65 6 0.767179 0.396297 0.729475 0.336754 0.785856 0.307253 0 0 0 0 
3 59 37 65 6 0.735451 0.167205 0.645684 0.150401 0.725846 0.134211 0 0 0 0 
3 64 51 71 6 0.560847 0.276252 0.614594 0.255338 0.582013 0.328163 0 0 0 0 
3 62 67 65 6 0.729475 0.336754 0.772907 0.289867 0.785856 0.307253 0 0 0 0 
3 62 58 66 6 0.729475 0.336754 0.697565 0.300685 0.720629 0.279757 0 0 0 0 
3 61 66 58 6 0.219773 0.454675 0.192952 0.496211 0.177585 0.469811 0 0 0 0 
3 68 55 70 6 0.691383 0.892165 0.648460 0.947064 0.643961 0.853788 0 0 0 0 
3 67 62 66 6 0.772907 0.289867 0.729475 0.336754 0.720629 0.279757 0 0 0 0 
3 63 66 61 6 0.243154 0.496419 0.192952 0.496211 0.219773 0.454675 0 0 0 0 
3 56 68 71 6 0.733667 0.921248 0.691383 0.892165 0.738713 0.847891 0 0 0 0 
3 60 64 78 6 0.343539 0.061282 0.343105 0.013116 0.394222 0.018948 0 0 0 0 
3 55 53 70 6 0.648460 0.947064 0.612319 0.918748 0.643961 0.853788 0 0 0 0 
3 69 66 63 6 0.755612 0.227314 0.720629 0.279757 0.694090 0.226946 0 0 0 0 
3 64 71 78 6 0.560847 0.276252 0.582013 0.328163 0.537578 0.334158 0 0 0 0 
3 66 69 67 6 0.720629 0.279757 0.755612 0.227314 0.772907 0.289867 0 0 0 0 
3 65 67 97 6 0.725846 0.134211 0.711446 0.096446 0.779925 0.087349 0 0 0 0 
3 70 53 59 6 0.643961 0.853788 0.612319 0.918748 0.588920 0.857092 0 0 0 0 
3 90 63 60 6 0.421083 0.068134 0.363841 0.091089 0.343539 0.061282 0 0 0 0 
3 71 68 70 6 0.738713 0.847891 0.691383 0.892165 0.643961 0.853788 0 0 0 0 
3 65 97 59 6 0.725846 0.134211 0.779925 0.087349 0.735451 0.167205 0 0 0 0 
3 73 76 75 6 0.892377 0.968087 0.884142 0.974568 0.864223 0.977558 0 0 0 0 
3 76 73 74 6 0.187457 0.840415 0.173352 0.855472 0.177120 0.826883 0 0 0 0 
3 90 69 63 6 0.421083 0.068134 0.412891 0.111094 0.363841 0.091089 0 0 0 0 
3 97 67 69 6 0.802476 0.233195 0.772907 0.289867 0.755612 0.227314 0 0 0 0 
3 79 115 71 6 0.684894 0.789978 0.745927 0.790162 0.700799 0.843264 0 0 0 0 
3 60 78 90 6 0.343539 0.061282 0.394222 0.018948 0.421083 0.068134 0 0 0 0 
3 75 74 73 6 0.864223 0.977558 0.868994 0.953085 0.878944 0.957361 0 0 0 0 
3 71 70 79 6 0.738713 0.847891 0.643961 0.853788 0.684894 0.789978 0 0 0 0 
3 78 71 115 6 0.537578 0.334158 0.577596 0.344427 0.524369 0.380669 0 0 0 0 
3 72 82 87 6 0.289466 0.360700 0.266328 0.355424 0.282999 0.331924 0 0 0 0 
3 80 74 75 6 0.853492 0.957886 0.868994 0.953085 0.864223 0.977558 0 0 0 0 
3 94 86 74 6 0.499470 0.776731 0.487178 0.756449 0.516290 0.731946 0 0 0 0 
3 74 86 77 6 0.516290 0.731946 0.487178 0.756449 0.500398 0.711576 0 0 0 0 
3 80 94 74 6 0.528316 0.755731 0.499470 0.776731 0.516290 0.731946 0 0 0 0 
3 82 72 84 6 0.928049 0.535591 0.904750 0.541845 0.915189 0.494213 0 0 0 0 
3 79 70 111 6 0.684894 0.789978 0.643961 0.853788 0.627976 0.786522 0 0 0 0 
3 74 77 76 6 0.318296 0.241932 0.323909 0.221186 0.317629 0.253759 0 0 0 0 
3 85 59 97 6 0.808598 0.148691 0.735451 0.167205 0.779925 0.087349 0 0 0 0 
3 78 91 90 6 0.394222 0.018948 0.440346 0.018062 0.421083 0.068134 0 0 0 0 
3 77 86 88 6 0.323909 0.221186 0.353303 0.263248 0.330099 0.291948 0 0 0 0 
3 89 87 82 6 0.395352 0.898984 0.385786 0.880049 0.394075 0.874154 0 0 0 0 
3 70 59 85 6 0.643961 0.853788 0.588920 0.857092 0.602390 0.794888 0 0 0 0 
3 77 93 76 6 0.323909 0.221186 0.324336 0.263342 0.317629 0.253759 0 0 0 0 
3 72 87 84 6 0.904750 0.541845 0.883018 0.512780 0.915189 0.494213 0 0 0 0 
3 83 69 90 6 0.425702 0.122489 0.412891 0.111094 0.421083 0.068134 0 0 0 0 
3 93 77 88 6 0.324336 0.263342 0.323909 0.221186 0.330099 0.291948 0 0 0 0 
3 80 75 93 6 0.206753 0.796820 0.207374 0.832124 0.192393 0.770636 0 0 0 0 
3 75 76 93 6 0.207374 0.832124 0.187457 0.840415 0.192393 0.770636 0 0 0 0 
3 81 102 96 6 0.277201 0.259919 0.272784 0.243533 0.275523 0.238196 0 0 0 0 
3 111 70 85 6 0.627976 0.786522 0.643961 0.853788 0.602390 0.794888 0 0 0 0 
3 83 90 95 6 0.452454 0.135032 0.421083 0.068134 0.467913 0.105887 0 0 0 0 
3 89 81 96 6 0.800031 0.724981 0.797568 0.741367 0.791419 0.728048 0 0 0 0 
3 97 69 83 6 0.802476 0.233195 0.755612 0.227314 0.782496 0.190860 0 0 0 0 
3 81 89 102 6 0.427443 0.854439 0.414336 0.840703 0.412110 0.814984 0 0 0 0 
3 89 82 84 6 0.401698 0.836314 0.386840 0.844823 0.397930 0.830225 0 0 0 0 
3 98 94 80 6 0.833260 0.915402 0.849142 0.931567 0.843265 0.949310 0 0 0 0 
3 87 89 92 6 0.009666 0.549867 0.019241 0.553498 0.018379 0.577549 0 0 0 0 
3 86 94 88 6 0.487178 0.756449 0.499470 0.776731 0.483903 0.794389 0 0 0 0 
3 93 98 80 6 0.052833 0.791217 0.066987 0.790315 0.064909 0.828641 0 0 0 0 
3 91 78 115 6 0.505772 0.354048 0.537578 0.334158 0.524369 0.380669 0 0 0 0 
3 87 92 101 6 0.883018 0.512780 0.890125 0.479512 0.904315 0.439464 0 0 0 0 
3 102 89 84 6 0.412110 0.814984 0.401698 0.836314 0.397930 0.830225 0 0 0 0 
3 89 96 92 6 0.395352 0.898984 0.390442 0.914133 0.377517 0.914970 0 0 0 0 
3 84 87 101 6 0.915189 0.494213 0.883018 0.512780 0.904315 0.439464 0 0 0 0 
3 104 115 79 6 0.671851 0.763187 0.745927 0.790162 0.684894 0.789978 0 0 0 0 
3 111 104 79 6 0.627976 0.786522 0.671851 0.763187 0.684894 0.789978 0 0 0 0 
3 90 91 99 6 0.421083 0.068134 0.440346 0.018062 0.482763 0.044622 0 0 0 0 
3 94 98 88 6 0.499470 0.776731 0.511370 0.795172 0.483903 0.794389 0 0 0 0 
3 84 101 102 6 0.915189 0.494213 0.904315 0.439464 0.923701 0.475119 0 0 0 0 
3 106 97 83 6 0.871429 0.081216 0.779925 0.087349 0.799691 0.040479 0 0 0 0 
3 95 90 99 6 0.467913 0.105887 0.421083 0.068134 0.482763 0.044622 0 0 0 0 
3 99 91 115 6 0.478365 0.371708 0.504346 0.354843 0.524369 0.380669 0 0 0 0 
3 88 98 100 6 0.483903 0.794389 0.511370 0.795172 0.504003 0.822665 0 0 0 0 
3 105 100 98 6 0.081355 0.774428 0.080496 0.779254 0.066987 0.790315 0 0 0 0 
3 96 102 92 6 0.041887 0.569376 0.042524 0.577460 0.018379 0.577549 0 0 0 0 
3 107 85 97 6 0.843896 0.131780 0.808598 0.148691 0.779925 0.087349 0 0 0 0 
3 92 103 101 6 0.140595 0.728730 0.130242 0.682180 0.155536 0.712464 0 0 0 0 
3 92 102 108 6 0.018379 0.577549 0.042524 0.577460 0.028413 0.604737 0 0 0 0 
3 106 83 113 6 0.871429 0.081216 0.799691 0.040479 0.854726 0.040525 0 0 0 0 
3 83 95 113 6 0.799691 0.040479 0.800273 0.023506 0.854726 0.040525 0 0 0 0 
3 98 93 114 6 0.066987 0.790315 0.052833 0.791217 0.056639 0.748805 0 0 0 0 
3 113 95 109 6 0.085916 0.202156 0.134452 0.188664 0.091222 0.255399 0 0 0 0 
3 92 108 103 6 0.571620 0.779779 0.579538 0.798193 0.572515 0.804279 0 0 0 0 
3 117 107 97 6 0.893961 0.114604 0.843896 0.131780 0.779925 0.087349 0 0 0 0 
3 114 93 88 6 0.196305 0.718655 0.192393 0.770636 0.184374 0.749153 0 0 0 0 
3 105 98 114 6 0.086493 0.744604 0.066987 0.790315 0.056639 0.748805 0 0 0 0 
3 115 104 136 6 0.524369 0.380669 0.576708 0.428556 0.495249 0.487530 0 0 0 0 
3 106 117 97 6 0.871429 0.081216 0.893961 0.114604 0.779925 0.087349 0 0 0 0 
3 115 112 99 6 0.524369 0.380669 0.449846 0.435996 0.478365 0.371708 0 0 0 0 
3 102 122 108 6 0.412110 0.814984 0.446486 0.744047 0.431834 0.783741 0 0 0 0 
3 95 99 118 6 0.467913 0.105887 0.482763 0.044622 0.531487 0.070172 0 0 0 0 
3 107 111 85 6 0.583631 0.752322 0.627976 0.786522 0.602390 0.794888 0 0 0 0 
3 114 88 100 6 0.322733 0.347412 0.330099 0.291948 0.346487 0.338639 0 0 0 0 
3 122 102 101 6 0.446486 0.744047 0.412110 0.814984 0.426410 0.751521 0 0 0 0 
3 114 100 121 6 0.322733 0.347412 0.346487 0.338639 0.332497 0.380221 0 0 0 0 
3 100 105 116 6 0.504003 0.822665 0.526119 0.843103 0.515872 0.887895 0 0 0 0 
3 107 117 111 6 0.583631 0.752322 0.569005 0.708522 0.627976 0.786522 0 0 0 0 
3 116 105 110 6 0.515872 0.887895 0.526119 0.843103 0.535155 0.881575 0 0 0 0 
3 118 99 112 6 0.531487 0.070172 0.482763 0.044622 0.542481 0.015112 0 0 0 0 
3 103 108 120 6 0.014599 0.644691 0.026399 0.627958 0.013100 0.673767 0 0 0 0 
3 105 114 125 6 0.086493 0.744604 0.056639 0.748805 0.068146 0.685124 0 0 0 0 
3 119 101 103 6 0.134501 0.601238 0.155536 0.712464 0.130242 0.682180 0 0 0 0 
3 121 100 116 6 0.495647 0.877587 0.504003 0.822665 0.515872 0.887895 0 0 0 0 
3 116 110 130 6 0.515872 0.887895 0.535155 0.881575 0.531675 0.923077 0 0 0 0 
3 119 103 120 6 0.134501 0.601238 0.130242 0.682180 0.112225 0.633272 0 0 0 0 
3 114 121 125 6 0.196305 0.718655 0.184734 0.669801 0.214562 0.655952 0 0 0 0 
3 110 105 125 6 0.100703 0.699705 0.086493 0.744604 0.068146 0.685124 0 0 0 0 
3 136 104 142 6 0.664388 0.695954 0.671851 0.763187 0.621331 0.656320 0 0 0 0 
3 137 113 109 6 0.059817 0.287444 0.085916 0.202156 0.091222 0.255399 0 0 0 0 
3 111 142 104 6 0.627976 0.786522 0.621331 0.656320 0.671851 0.763187 0 0 0 0 
3 118 131 95 6 0.531487 0.070172 0.606346 0.111762 0.467913 0.105887 0 0 0 0 
3 109 95 131 6 0.091222 0.255399 0.134452 0.188664 0.109100 0.317439 0 0 0 0 
3 108 123 120 6 0.450079 0.811455 0.441758 0.877891 0.441274 0.855346 0 0 0 0 
3 108 122 123 6 0.466786 0.742874 0.446486 0.744047 0.485412 0.716781 0 0 0 0 
3 101 119 126 6 0.904315 0.439464 0.884731 0.361257 0.905760 0.347864 0 0 0 0 
3 112 115 143 6 0.449846 0.435996 0.524369 0.380669 0.438462 0.509553 0 0 0 0 
3 110 125 130 6 0.100703 0.699705 0.068146 0.685124 0.104887 0.663870 0 0 0 0 
3 117 142 111 6 0.569005 0.708522 0.621331 0.656320 0.627976 0.786522 0 0 0 0 
3 126 122 101 6 0.450935 0.694201 0.446486 0.744047 0.426410 0.751521 0 0 0 0 
3 121 116 141 6 0.332497 0.380221 0.360131 0.397028 0.329642 0.436184 0 0 0 0 
3 119 120 124 6 0.134501 0.601238 0.112225 0.633272 0.113023 0.604642 0 0 0 0 
3 143 115 136 6 0.438462 0.509553 0.524369 0.380669 0.495249 0.487530 0 0 0 0 
3 124 120 123 6 0.013052 0.696901 0.013100 0.673767 0.019954 0.699695 0 0 0 0 
3 125 121 141 6 0.214562 0.655952 0.184734 0.669801 0.191659 0.615847 0 0 0 0 
3 130 129 116 6 0.531675 0.923077 0.502056 0.936745 0.515872 0.887895 0 0 0 0 
3 123 122 126 6 0.485412 0.716781 0.446486 0.744047 0.450935 0.694201 0 0 0 0 
3 126 132 123 6 0.450935 0.694201 0.488262 0.675056 0.485412 0.716781 0 0 0 0 
3 116 129 141 6 0.360131 0.397028 0.357235 0.431760 0.329642 0.436184 0 0 0 0 
3 117 106 138 6 0.893961 0.114604 0.871429 0.081216 0.950416 0.084370 0 0 0 0 
3 118 112 133 6 0.531487 0.070172 0.542481 0.015112 0.586698 0.029935 0 0 0 0 
3 125 141 127 6 0.214562 0.655952 0.191659 0.615847 0.217403 0.610862 0 0 0 0 
3 130 125 127 6 0.104887 0.663870 0.068146 0.685124 0.075667 0.616134 0 0 0 0 
3 124 123 132 6 0.916212 0.973576 0.934900 0.985499 0.909109 0.989039 0 0 0 0 
3 106 113 137 6 0.871429 0.081216 0.854726 0.040525 0.938961 0.011773 0 0 0 0 
3 139 129 130 6 0.507073 0.973619 0.502056 0.936745 0.531675 0.923077 0 0 0 0 
3 139 130 134 6 0.507073 0.973619 0.531675 0.923077 0.549115 0.976024 0 0 0 0 
3 118 133 134 6 0.531487 0.070172 0.586698 0.029935 0.605147 0.044867 0 0 0 0 
3 130 127 134 6 0.104887 0.663870 0.075667 0.616134 0.092319 0.598549 0 0 0 0 
3 119 124 140 6 0.134501 0.601238 0.113330 0.575534 0.110433 0.546744 0 0 0 0 
3 117 138 135 6 0.893961 0.114604 0.950416 0.084370 0.957123 0.114131 0 0 0 0 
3 128 117 135 6 0.941951 0.129660 0.893961 0.114604 0.957123 0.114131 0 0 0 0 
3 133 112 143 6 0.399497 0.466996 0.449846 0.435996 0.438462 0.509553 0 0 0 0 
3 129 145 141 6 0.357235 0.431760 0.338349 0.485769 0.329642 0.436184 0 0 0 0 
3 146 136 142 6 0.617869 0.584697 0.648436 0.641619 0.621331 0.656320 0 0 0 0 
3 138 106 137 6 0.950416 0.084370 0.871429 0.081216 0.959060 0.049136 0 0 0 0 
3 124 138 140 6 0.102855 0.565676 0.099804 0.565011 0.101226 0.558736 0 0 0 0 
3 109 156 137 6 0.091222 0.255399 0.059038 0.385449 0.059817 0.287444 0 0 0 0 
3 124 132 144 6 0.428373 0.908430 0.460705 0.909977 0.472077 0.940776 0 0 0 0 
3 144 132 126 6 0.498821 0.641787 0.488262 0.675056 0.450935 0.694201 0 0 0 0 
3 156 109 131 6 0.059038 0.385449 0.091222 0.255399 0.109100 0.317439 0 0 0 0 
3 138 124 135 6 0.430756 0.935386 0.428373 0.908430 0.441572 0.947844 0 0 0 0 
3 117 128 142 6 0.569005 0.708522 0.568364 0.634296 0.621331 0.656320 0 0 0 0 
3 143 136 146 6 0.438462 0.509553 0.495249 0.487530 0.446542 0.556685 0 0 0 0 
3 145 129 139 6 0.338349 0.485769 0.357235 0.431760 0.367373 0.474806 0 0 0 0 
3 135 124 144 6 0.441572 0.947844 0.428373 0.908430 0.472077 0.940776 0 0 0 0 
3 119 140 147 6 0.134501 0.601238 0.110433 0.546744 0.148690 0.539792 0 0 0 0 
3 127 141 152 6 0.075667 0.616134 0.053904 0.620538 0.053337 0.594544 0 0 0 0 
3 126 147 144 6 0.912320 0.329312 0.893125 0.269001 0.920685 0.293201 0 0 0 0 
3 119 147 126 6 0.882853 0.295170 0.893125 0.269001 0.912320 0.329312 0 0 0 0 
3 139 134 133 6 0.507073 0.973619 0.549115 0.976024 0.513617 0.992540 0 0 0 0 
3 138 137 140 6 0.950416 0.084370 0.959060 0.049136 0.966607 0.066428 0 0 0 0 
3 134 127 148 6 0.092319 0.598549 0.075667 0.616134 0.058505 0.562559 0 0 0 0 
3 134 148 118 6 0.605147 0.044867 0.658274 0.075256 0.531487 0.070172 0 0 0 0 
3 152 148 127 6 0.053337 0.594544 0.058505 0.562559 0.075667 0.616134 0 0 0 0 
3 137 151 140 6 0.089321 0.515010 0.145824 0.489671 0.110433 0.546744 0 0 0 0 
3 147 140 151 6 0.148690 0.539792 0.110433 0.546744 0.145824 0.489671 0 0 0 0 
3 144 147 159 6 0.920685 0.293201 0.893125 0.269001 0.930042 0.214686 0 0 0 0 
3 146 142 128 6 0.617869 0.584697 0.621331 0.656320 0.568364 0.634296 0 0 0 0 
3 118 148 131 6 0.531487 0.070172 0.658274 0.075256 0.606346 0.111762 0 0 0 0 
3 149 151 137 6 0.106224 0.459638 0.145824 0.489671 0.071637 0.517548 0 0 0 0 
3 139 133 150 6 0.367373 0.474806 0.399497 0.466996 0.355072 0.533544 0 0 0 0 
3 154 128 135 6 0.520936 0.589160 0.568364 0.634296 0.525334 0.656640 0 0 0 0 
3 128 154 146 6 0.568364 0.634296 0.520936 0.589160 0.617869 0.584697 0 0 0 0 
3 141 145 152 6 0.191659 0.615847 0.187679 0.561952 0.217625 0.539834 0 0 0 0 
3 145 139 150 6 0.338349 0.485769 0.367373 0.474806 0.355072 0.533544 0 0 0 0 
3 135 144 154 6 0.525334 0.656640 0.498821 0.641787 0.520936 0.589160 0 0 0 0 
3 144 159 154 6 0.498821 0.641787 0.489903 0.571561 0.520936 0.589160 0 0 0 0 
3 137 156 149 6 0.059817 0.287444 0.059038 0.385449 0.028208 0.359993 0 0 0 0 
3 143 150 133 6 0.438462 0.509553 0.355072 0.533544 0.399497 0.466996 0 0 0 0 
3 155 146 154 6 0.580748 0.550684 0.617869 0.584697 0.520936 0.589160 0 0 0 0 
3 131 148 156 6 0.109100 0.317439 0.116054 0.377182 0.059038 0.385449 0 0 0 0 
3 145 153 152 6 0.187679 0.561952 0.183702 0.514814 0.217625 0.539834 0 0 0 0 
3 159 147 151 6 0.930042 0.214686 0.893125 0.269001 0.885875 0.213757 0 0 0 0 
3 145 150 153 6 0.338349 0.485769 0.355072 0.533544 0.323596 0.538076 0 0 0 0 
3 143 146 166 6 0.438462 0.509553 0.446542 0.556685 0.373420 0.587202 0 0 0 0 
3 161 148 152 6 0.114890 0.424433 0.139965 0.378172 0.150484 0.403721 0 0 0 0 
3 158 166 146 6 0.403588 0.600967 0.373420 0.587202 0.446542 0.556685 0 0 0 0 
3 166 150 143 6 0.373420 0.587202 0.355072 0.533544 0.438462 0.509553 0 0 0 0 
3 152 153 161 6 0.150484 0.403721 0.149002 0.427847 0.114890 0.424433 0 0 0 0 
3 156 148 161 6 0.059038 0.385449 0.116054 0.377182 0.114890 0.424433 0 0 0 0 
3 158 146 155 6 0.403588 0.600967 0.434335 0.569284 0.440243 0.618051 0 0 0 0 
3 155 154 160 6 0.580748 0.550684 0.520936 0.589160 0.545426 0.543409 0 0 0 0 
3 157 149 156 6 0.014430 0.415945 0.028208 0.359993 0.059038 0.385449 0 0 0 0 
3 149 157 151 6 0.877782 0.187562 0.906782 0.148002 0.885875 0.213757 0 0 0 0 
3 150 161 153 6 0.137463 0.439161 0.114890 0.424433 0.149002 0.427847 0 0 0 0 
3 161 150 166 6 0.330211 0.580794 0.355072 0.533544 0.373420 0.587202 0 0 0 0 
3 158 155 163 6 0.403588 0.600967 0.440243 0.618051 0.422815 0.625913 0 0 0 0 
3 159 160 154 6 0.489903 0.571561 0.545426 0.543409 0.520936 0.589160 0 0 0 0 
3 155 160 162 6 0.440243 0.618051 0.456843 0.642747 0.435191 0.661348 0 0 0 0 
3 160 159 157 6 0.545426 0.543409 0.489903 0.571561 0.525383 0.515481 0 0 0 0 
3 159 151 157 6 0.930042 0.214686 0.885875 0.213757 0.906782 0.148002 0 0 0 0 
3 155 162 163 6 0.440243 0.618051 0.435191 0.661348 0.430914 0.650024 0 0 0 0 
3 162 160 157 6 0.106657 0.866996 0.100406 0.857106 0.123752 0.847472 0 0 0 0 
3 161 166 167 6 0.330211 0.580794 0.373420 0.587202 0.350367 0.611473 0 0 0 0 
3 166 158 164 6 0.373420 0.587202 0.403588 0.600967 0.387311 0.652599 0 0 0 0 
3 158 163 164 6 0.403588 0.600967 0.399157 0.642360 0.387311 0.652599 0 0 0 0 
3 156 161 167 6 0.059038 0.385449 0.114890 0.424433 0.059467 0.453017 0 0 0 0 
3 167 157 156 6 0.038859 0.433075 0.014430 0.415945 0.059038 0.385449 0 0 0 0 
3 164 163 165 6 0.074170 0.923373 0.087758 0.888993 0.105543 0.920148 0 0 0 0 
3 166 164 169 6 0.373420 0.587202 0.387311 0.652599 0.358814 0.636298 0 0 0 0 
3 157 167 168 6 0.123752 0.847472 0.155902 0.865887 0.182411 0.878063 0 0 0 0 
3 157 168 162 6 0.123752 0.847472 0.182411 0.878063 0.113983 0.871360 0 0 0 0 
3 163 162 176 6 0.087758 0.888993 0.113983 0.871360 0.170147 0.921685 0 0 0 0 
3 167 166 169 6 0.939993 0.934519 0.924610 0.959407 0.902069 0.911000 0 0 0 0 
3 170 164 165 6 0.084696 0.944221 0.074170 0.923373 0.105543 0.920148 0 0 0 0 
3 176 165 163 6 0.170147 0.921685 0.105543 0.920148 0.087758 0.888993 0 0 0 0 
3 169 164 171 6 0.902069 0.911000 0.897852 0.957379 0.872065 0.920335 0 0 0 0 
3 168 176 162 6 0.182411 0.878063 0.170147 0.921685 0.113983 0.871360 0 0 0 0 
3 164 170 171 6 0.387311 0.652599 0.374834 0.701560 0.344431 0.685970 0 0 0 0 
3 168 167 169 6 0.934629 0.904737 0.939993 0.934519 0.902069 0.911000 0 0 0 0 
3 165 176 173 6 0.105543 0.920148 0.170147 0.921685 0.142661 0.955411 0 0 0 0 
3 170 165 173 6 0.101318 0.963915 0.105543 0.920148 0.142661 0.955411 0 0 0 0 
3 168 169 178 6 0.934629 0.904737 0.902069 0.911000 0.905277 0.865396 0 0 0 0 
3 169 171 172 6 0.902069 0.911000 0.872065 0.920335 0.862612 0.870692 0 0 0 0 
3 169 172 178 6 0.902069 0.911000 0.862612 0.870692 0.905277 0.865396 0 0 0 0 
3 176 168 174 6 0.170147 0.921685 0.182411 0.878063 0.211009 0.905825 0 0 0 0 
3 168 178 174 6 0.038988 0.478637 0.041621 0.522402 0.014874 0.516835 0 0 0 0 
3 170 173 175 6 0.101318 0.963915 0.142661 0.955411 0.141700 0.981666 0 0 0 0 
3 177 171 170 6 0.343805 0.723930 0.344431 0.685970 0.374834 0.701560 0 0 0 0 
3 177 170 175 6 0.128859 0.989612 0.101318 0.963915 0.141700 0.981666 0 0 0 0 
3 172 171 179 6 0.862612 0.870692 0.872065 0.920335 0.835913 0.871688 0 0 0 0 
3 171 177 179 6 0.344431 0.685970 0.324762 0.727399 0.315071 0.712790 0 0 0 0 
3 173 181 175 6 0.142661 0.955411 0.160722 0.964759 0.148503 0.975649 0 0 0 0 
3 174 180 176 6 0.202513 0.924801 0.208851 0.953337 0.170147 0.921685 0 0 0 0 
3 176 181 173 6 0.170147 0.921685 0.182122 0.964345 0.142661 0.955411 0 0 0 0 
3 178 184 174 6 0.041621 0.522402 0.023948 0.535451 0.014874 0.516835 0 0 0 0 
3 174 184 180 6 0.377959 0.973736 0.377291 0.938086 0.397650 0.964024 0 0 0 0 
3 175 181 182 6 0.323064 0.746550 0.339126 0.770384 0.319930 0.767067 0 0 0 0 
3 181 176 180 6 0.182122 0.964345 0.170147 0.921685 0.198017 0.952615 0 0 0 0 
3 177 183 179 6 0.827737 0.884059 0.819533 0.872403 0.835913 0.871688 0 0 0 0 
3 178 172 184 6 0.905277 0.865396 0.862612 0.870692 0.887223 0.842547 0 0 0 0 
3 172 179 193 6 0.439030 0.962741 0.456830 0.982642 0.434531 0.984151 0 0 0 0 
3 184 172 193 6 0.419447 0.966704 0.439030 0.962741 0.434531 0.984151 0 0 0 0 
3 177 175 183 6 0.324762 0.727399 0.323064 0.746550 0.311791 0.733776 0 0 0 0 
3 193 179 185 6 0.434531 0.984151 0.456830 0.982642 0.453263 0.992337 0 0 0 0 
3 182 181 180 6 0.319930 0.767067 0.323422 0.781024 0.310827 0.776984 0 0 0 0 
3 175 182 185 6 0.285386 0.428738 0.284598 0.421789 0.292334 0.426298 0 0 0 0 
3 185 182 187 6 0.191890 0.987428 0.188169 0.993907 0.180717 0.987575 0 0 0 0 
3 186 189 193 6 0.287508 0.487577 0.285323 0.494498 0.283318 0.486504 0 0 0 0 
3 193 185 186 6 0.378540 0.988549 0.380687 0.991830 0.376616 0.990461 0 0 0 0 
3 185 187 186 6 0.380687 0.991830 0.376592 0.993520 0.376616 0.990461 0 0 0 0 
3 188 182 180 6 0.708428 0.982154 0.717217 0.990780 0.702600 0.988439 0 0 0 0 
3 191 182 186 6 0.267709 0.457993 0.266367 0.453214 0.268592 0.456474 0 0 0 0 
3 188 186 182 6 0.708428 0.982154 0.711250 0.977986 0.717217 0.990780 0 0 0 0 
3 180 184 192 6 0.400935 0.957809 0.377291 0.938086 0.402848 0.936524 0 0 0 0 
3 193 194 184 6 0.434531 0.984151 0.417773 0.988695 0.419447 0.966704 0 0 0 0 
3 184 194 192 6 0.419447 0.966704 0.417773 0.988695 0.410771 0.983838 0 0 0 0 
3 175 185 179 6 0.203201 0.979662 0.198479 0.984334 0.193072 0.980540 0 0 0 0 
3 179 183 186 6 0.835913 0.871688 0.833635 0.853590 0.840558 0.844311 0 0 0 0 
3 186 187 179 6 0.840558 0.844311 0.837610 0.855071 0.835913 0.871688 0 0 0 0 
3 187 175 179 6 0.180717 0.987575 0.203201 0.979662 0.193072 0.980540 0 0 0 0 
3 187 182 191 6 0.260043 0.463046 0.266367 0.453214 0.267709 0.457993 0 0 0 0 
3 188 194 189 6 0.608531 0.994400 0.607842 0.997579 0.606274 0.994475 0 0 0 0 
3 186 188 189 6 0.711250 0.977986 0.708428 0.982154 0.706576 0.973225 0 0 0 0 
3 190 188 195 6 0.099774 0.981404 0.099321 0.978410 0.103008 0.987233 0 0 0 0 
3 188 191 195 6 0.106154 0.983304 0.106204 0.985622 0.103008 0.987233 0 0 0 0 
3 194 193 190 6 0.607842 0.997579 0.604406 0.997473 0.604070 0.995738 0 0 0 0 
3 187 191 188 6 0.260043 0.463046 0.267709 0.457993 0.267307 0.460408 0 0 0 0 
3 191 186 195 6 0.822226 0.889317 0.821171 0.892989 0.820556 0.887823 0 0 0 0 
3 190 192 188 6 0.290068 0.451320 0.286063 0.440952 0.291552 0.448069 0 0 0 0 
3 190 195 194 6 0.604070 0.995738 0.604901 0.994207 0.607842 0.997579 0 0 0 0 
3 194 195 189 6 0.607842 0.997579 0.604901 0.994207 0.606274 0.994475 0 0 0 0 
3 183 195 186 6 0.285972 0.476404 0.283826 0.458622 0.290056 0.462396 0 0 0 0 
3 194 188 192 6 0.290592 0.444501 0.291552 0.448069 0.286063 0.440952 0 0 0 0 
3 193 189 195 6 0.702357 0.979727 0.706576 0.973225 0.704461 0.980302 0 0 0 0 
3 187 195 183 6 0.284704 0.468241 0.283826 0.458622 0.285972 0.476404 0 0 0 0 
3 193 192 190 6 0.287246 0.452374 0.286063 0.440952 0.290068 0.451320 0 0 0 0 
3 187 183 175 6 0.180717 0.987575 0.188086 0.978388 0.203201 0.979662 0 0 0 0 
3 192 187 180 6 0.263980 0.479869 0.260043 0.463046 0.269487 0.473122 0 0 0 0 
3 192 193 195 6 0.286063 0.440952 0.287246 0.452374 0.283826 0.458622 0 0 0 0 
3 188 180 187 6 0.267307 0.460408 0.269487 0.473122 0.260043 0.463046 0 0 0 0 
3 195 187 192 6 0.283826 0.458622 0.278716 0.454136 0.286063 0.440952 0 0 0 0 
